<?xml version="1.0" standalone="no"?>
<!DOCTYPE svg PUBLIC "-//W3C//DTD SVG 20010904//EN"
 "http://www.w3.org/TR/2001/REC-SVG-20010904/DTD/svg10.dtd">
<svg version="1.0" xmlns="http://www.w3.org/2000/svg"
 width="300.000000pt" height="300.000000pt" viewBox="0 0 300.000000 300.000000"
 preserveAspectRatio="xMidYMid meet">
<metadata>
Created by potrace 1.14, written by Peter Selinger 2001-2017
</metadata>
<g transform="translate(0.000000,300.000000) scale(0.100000,-0.100000)"
fill="#000000" stroke="none">
<path d="M0 1500 l0 -1500 1500 0 1500 0 0 1500 0 1500 -1500 0 -1500 0 0
-1500z m1715 1100 c31 -94 80 -239 395 -1170 259 -764 380 -1123 380 -1127 0
-2 -74 -3 -165 -3 -91 0 -165 1 -165 3 0 3 -79 235 -227 667 -30 89 18 81
-450 78 l-417 -3 -114 -345 c-62 -190 -118 -357 -124 -372 l-10 -28 -159 0
c-161 0 -169 2 -149 38 5 9 45 125 89 257 44 132 180 535 301 895 122 360 262
780 313 932 l92 278 189 -3 189 -2 32 -95z"/>
<path d="M1475 2398 c-2 -7 -10 -40 -19 -73 -26 -106 -57 -218 -78 -285 -24
-77 -234 -707 -243 -732 -7 -17 14 -18 349 -18 196 0 356 2 356 5 0 3 -56 173
-124 378 -123 367 -216 675 -216 716 0 23 -18 29 -25 9z"/>
</g>
</svg>
