<svg
	xmlns="http://www.w3.org/2000/svg"
	viewBox="0 0 512 512"
	fill="currentColor"
	class="logotype"
	aria-hidden="true"
>
	<g transform="translate(0 512) scale(.1 -.1)">
		<path
			d="m679 2903-656-1858 420-3c231-1 422-1 424 2 2 2 64 199 137 437l133 434 680 3 680 2 268-880h424c334 0 422 3 419 13-3 6-299 843-658 1860l-654 1847h-481-481l-655-1857zm1156 1230c9-50 193-658 348-1153l124-395-480-3c-264-1-482 0-484 2-3 2 61 215 141 473 159 513 271 888 307 1030 13 50 26 90 30 87 4-2 10-21 14-41z"
		/>
		<path
			d="m3920 4753c0-30 121-2323 126-2380l6-73h309 309v29c0 38 118 2296 124 2374l4 57h-439c-241 0-439-3-439-7z"
		/>
		<path
			d="m4203 1835c-212-57-305-201-290-448 7-110 16-145 59-216 101-166 396-230 605-132 154 73 217 186 217 386 0 230-91 356-295 410-68 19-228 18-296 0z"
		/>
	</g>
</svg>